<svg width="174" height="61" viewBox="0 0 174 61" fill="none" xmlns="http://www.w3.org/2000/svg">
<path d="M1 57.1376V1.58716H26.0282L40.0685 17.4587V34.5512L14.4298 10.1334V57.1376H1Z" fill="white" stroke="white" stroke-width="1.22089"/>
<path d="M59.6028 1.58717V57.1376H34.5746L20.5343 41.2661V24.1736L46.173 48.5914V1.58717H59.6028Z" fill="white" stroke="white" stroke-width="1.22089"/>
<path d="M76.4334 4.9866H80.2952L89.3999 20.9409V4.9866H92.5005V25H88.4697L79.5341 9.4121V25H76.4334V4.9866ZM96.7747 17.5302C96.7747 12.7665 99.5935 9.72216 103.906 9.72216C107.458 9.72216 110.502 12.0899 110.671 17.4175V18.404H99.9882C100.157 21.1383 101.567 22.745 103.906 22.745C105.372 22.745 106.697 21.8993 107.317 20.4899L110.474 20.7154C109.572 23.5624 106.951 25.3383 103.906 25.3383C99.5935 25.3383 96.7747 22.294 96.7747 17.5302ZM100.016 16.1208H107.486C107.12 13.302 105.569 12.3154 103.906 12.3154C101.736 12.3154 100.355 13.7248 100.016 16.1208ZM115.182 4.9866H118.227V21.5329C118.227 22.1812 118.537 22.5195 119.213 22.5195H120.425V25H118.537C116.535 25 115.182 23.7034 115.182 21.6456V4.9866ZM133.167 14.7678C132.857 13.1893 131.363 12.2591 129.841 12.2591C128.319 12.2591 127.107 13.0201 127.135 14.3168C127.163 15.6698 128.883 16.2054 130.405 16.4873C134.126 17.1638 136.522 18.1785 136.522 21.1101C136.522 24.0416 133.562 25.3383 130.405 25.3383C126.571 25.3383 123.837 23.4215 123.612 20.2926L126.74 20.0953C127.022 21.7584 128.319 22.8013 130.377 22.8013C131.673 22.8013 133.365 22.3503 133.365 20.9691C133.365 19.3624 131.476 19.1933 129.869 18.8269C126.712 18.1503 123.978 17.3047 123.978 14.4295C123.978 11.498 126.346 9.72216 130.067 9.72216C133.308 9.72216 135.789 11.6108 136.296 14.5987L133.167 14.7678ZM147.258 25.3383C142.946 25.3383 140.127 22.294 140.127 17.5302C140.127 12.7665 142.946 9.72216 147.258 9.72216C151.571 9.72216 154.39 12.7665 154.39 17.5302C154.39 22.294 151.571 25.3383 147.258 25.3383ZM143.284 17.5302C143.284 20.7718 144.721 22.7168 147.258 22.7168C149.795 22.7168 151.233 20.7718 151.233 17.5302C151.233 14.2886 149.795 12.3436 147.258 12.3436C144.721 12.3436 143.284 14.2886 143.284 17.5302ZM158.7 10.0604H161.434L161.518 12.6255C162.308 10.596 164.027 9.72216 166.057 9.72216C169.439 9.72216 171.159 12.1181 171.159 15.3879V25H168.114V16.3181C168.114 13.6967 167.325 12.2873 165.267 12.2873C163.097 12.2873 161.744 13.6967 161.744 16.3181V25H158.7V10.0604ZM76.4334 34.9866H89.4844V37.8054H79.5341V43.5839H89.1462V46.3463H79.5341V52.1812H89.7099V55H76.4334V34.9866ZM94.4554 34.9866H97.4997V51.5329C97.4997 52.1812 97.8098 52.5195 98.4863 52.5195H99.6984V55H97.8098C95.8084 55 94.4554 53.7034 94.4554 51.6456V34.9866ZM104.006 40.0604H107.051V55H104.006V40.0604ZM103.95 37.8618V34.9866H107.107V37.8618H103.95ZM115.903 54.8027C115.903 57.5651 114.522 59.2282 111.731 59.2282H109.899V56.7476H111.252C112.238 56.7476 112.887 55.9866 112.887 54.8027V40.0604H115.903V54.8027ZM112.802 37.8618V34.9866H115.959V37.8618H112.802ZM120.643 44.5423C121.235 41.5262 123.603 39.7222 127.042 39.7222C131.129 39.7222 133.356 41.9772 133.356 46.0644V51.6175C133.356 52.3503 133.666 52.604 134.258 52.604H134.878V55H133.92C132.567 55.0282 130.707 54.8027 130.566 52.7168C129.917 54.1262 128.254 55.3383 125.774 55.3383C122.786 55.3383 120.39 53.7315 120.39 51.0819C120.39 48.094 122.617 47.2201 126.056 46.5436L130.312 45.7262C130.284 43.3302 129.213 42.2027 127.042 42.2027C125.323 42.2027 124.195 43.0765 123.772 44.7396L120.643 44.5423ZM123.547 51.0255C123.547 52.0966 124.477 52.9987 126.422 52.9987C128.649 52.9987 130.368 51.392 130.368 48.1785V48.0376L127.211 48.6013C125.182 48.9678 123.547 49.1369 123.547 51.0255ZM138.825 34.9866H141.869V42.0618C142.743 40.3987 144.434 39.7222 146.238 39.7222C149.593 39.7222 151.284 42.2027 151.284 45.3879V55H148.24V46.4591C148.24 43.8376 147.45 42.4282 145.393 42.4282C143.222 42.4282 141.869 43.8376 141.869 46.4591V55H138.825V34.9866Z" fill="white"/>
</svg>
