<svg width="174" height="62" viewBox="0 0 174 62" fill="none" xmlns="http://www.w3.org/2000/svg">
<path d="M1 57.9817V2.4312H26.0282L40.0685 18.3028V35.3952L14.4298 10.9774V57.9817H1Z" fill="#4F4F4F" stroke="#4F4F4F" stroke-width="1.22089"/>
<path d="M59.6028 2.4312V57.9817H34.5746L20.5343 42.1101V25.0177L46.173 49.4354V2.4312H59.6028Z" fill="#4F4F4F" stroke="#4F4F4F" stroke-width="1.22089"/>
<path d="M76.4334 5.83064H80.2952L89.3999 21.785V5.83064H92.5005V25.844H88.4697L79.5341 10.2561V25.844H76.4334V5.83064ZM96.7747 18.3742C96.7747 13.6105 99.5935 10.5662 103.906 10.5662C107.458 10.5662 110.502 12.934 110.671 18.2615V19.2481H99.9882C100.157 21.9823 101.567 23.589 103.906 23.589C105.372 23.589 106.697 22.7434 107.317 21.334L110.474 21.5595C109.572 24.4065 106.951 26.1823 103.906 26.1823C99.5935 26.1823 96.7747 23.138 96.7747 18.3742ZM100.016 16.9649H107.486C107.12 14.1461 105.569 13.1595 103.906 13.1595C101.736 13.1595 100.355 14.5689 100.016 16.9649ZM115.182 5.83064H118.227V22.3769C118.227 23.0253 118.537 23.3635 119.213 23.3635H120.425V25.844H118.537C116.535 25.844 115.182 24.5474 115.182 22.4897V5.83064ZM133.167 15.6118C132.857 14.0333 131.363 13.1031 129.841 13.1031C128.319 13.1031 127.107 13.8642 127.135 15.1608C127.163 16.5138 128.883 17.0494 130.405 17.3313C134.126 18.0078 136.522 19.0226 136.522 21.9541C136.522 24.8857 133.562 26.1823 130.405 26.1823C126.571 26.1823 123.837 24.2655 123.612 21.1367L126.74 20.9393C127.022 22.6024 128.319 23.6454 130.377 23.6454C131.673 23.6454 133.365 23.1944 133.365 21.8132C133.365 20.2065 131.476 20.0373 129.869 19.6709C126.712 18.9944 123.978 18.1487 123.978 15.2736C123.978 12.342 126.346 10.5662 130.067 10.5662C133.308 10.5662 135.789 12.4548 136.296 15.4427L133.167 15.6118ZM147.258 26.1823C142.946 26.1823 140.127 23.138 140.127 18.3742C140.127 13.6105 142.946 10.5662 147.258 10.5662C151.571 10.5662 154.39 13.6105 154.39 18.3742C154.39 23.138 151.571 26.1823 147.258 26.1823ZM143.284 18.3742C143.284 21.6159 144.721 23.5608 147.258 23.5608C149.795 23.5608 151.233 21.6159 151.233 18.3742C151.233 15.1326 149.795 13.1877 147.258 13.1877C144.721 13.1877 143.284 15.1326 143.284 18.3742ZM158.7 10.9045H161.434L161.518 13.4696C162.308 11.44 164.027 10.5662 166.057 10.5662C169.439 10.5662 171.159 12.9622 171.159 16.232V25.844H168.114V17.1622C168.114 14.5407 167.325 13.1313 165.267 13.1313C163.097 13.1313 161.744 14.5407 161.744 17.1622V25.844H158.7V10.9045ZM76.4334 35.8306H89.4844V38.6494H79.5341V44.4279H89.1462V47.1904H79.5341V53.0253H89.7099V55.844H76.4334V35.8306ZM94.4554 35.8306H97.4997V52.3769C97.4997 53.0253 97.8098 53.3635 98.4863 53.3635H99.6984V55.844H97.8098C95.8084 55.844 94.4554 54.5474 94.4554 52.4897V35.8306ZM104.006 40.9045H107.051V55.844H104.006V40.9045ZM103.95 38.7058V35.8306H107.107V38.7058H103.95ZM115.903 55.6467C115.903 58.4091 114.522 60.0722 111.731 60.0722H109.899V57.5917H111.252C112.238 57.5917 112.887 56.8306 112.887 55.6467V40.9045H115.903V55.6467ZM112.802 38.7058V35.8306H115.959V38.7058H112.802ZM120.643 45.3863C121.235 42.3702 123.603 40.5662 127.042 40.5662C131.129 40.5662 133.356 42.8212 133.356 46.9085V52.4615C133.356 53.1944 133.666 53.4481 134.258 53.4481H134.878V55.844H133.92C132.567 55.8722 130.707 55.6467 130.566 53.5608C129.917 54.9702 128.254 56.1823 125.774 56.1823C122.786 56.1823 120.39 54.5756 120.39 51.9259C120.39 48.938 122.617 48.0642 126.056 47.3877L130.312 46.5702C130.284 44.1743 129.213 43.0467 127.042 43.0467C125.323 43.0467 124.195 43.9206 123.772 45.5836L120.643 45.3863ZM123.547 51.8695C123.547 52.9407 124.477 53.8427 126.422 53.8427C128.649 53.8427 130.368 52.236 130.368 49.0226V48.8816L127.211 49.4454C125.182 49.8118 123.547 49.981 123.547 51.8695ZM138.825 35.8306H141.869V42.9058C142.743 41.2427 144.434 40.5662 146.238 40.5662C149.593 40.5662 151.284 43.0467 151.284 46.232V55.844H148.24V47.3031C148.24 44.6816 147.45 43.2722 145.393 43.2722C143.222 43.2722 141.869 44.6816 141.869 47.3031V55.844H138.825V35.8306Z" fill="#4F4F4F"/>
</svg>
